<svg xmlns="http://www.w3.org/2000/svg" xmlns:xlink="http://www.w3.org/1999/xlink" width="31.999" height="32" viewBox="0 0 31.999 32">
  <defs>
    <radialGradient id="radial-gradient" cx="0.078" cy="1" r="1" gradientTransform="matrix(0.002, -1, -0.93, -0.002, 1.244, 1.317)" gradientUnits="objectBoundingBox">
      <stop offset="0" stop-color="#fd5"/>
      <stop offset="0.1" stop-color="#fd5"/>
      <stop offset="0.551" stop-color="#ff543e"/>
      <stop offset="1" stop-color="#c837ab"/>
    </radialGradient>
    <radialGradient id="radial-gradient-2" cx="-0.071" cy="-0.046" r="0.288" gradientTransform="matrix(0.35, 0.937, 2.863, -1.069, 0.085, -0.029)" gradientUnits="objectBoundingBox">
      <stop offset="0" stop-color="#3771c8"/>
      <stop offset="0.267" stop-color="#3771c8"/>
      <stop offset="1" stop-color="#60f" stop-opacity="0"/>
    </radialGradient>
  </defs>
  <g id="logo-instagram" transform="translate(-3.001 -2.996)">
    <path id="Контур_2170" data-name="Контур 2170" d="M19.006,3c-6.68,0-8.634.007-9.013.038a7.931,7.931,0,0,0-3.153.793A6.378,6.378,0,0,0,5,5.177,6.868,6.868,0,0,0,3.147,9.068,28.974,28.974,0,0,0,3,13.792v5.2c0,6.676.008,8.629.04,9.007A8.04,8.04,0,0,0,3.8,31.092a6.742,6.742,0,0,0,4.369,3.57,11.341,11.341,0,0,0,2.323.3c.4.018,4.435.03,8.476.03s8.082,0,8.469-.024a10.923,10.923,0,0,0,2.407-.315,6.7,6.7,0,0,0,4.369-3.577,7.909,7.909,0,0,0,.754-3.032c.021-.276.03-4.672.03-9.062s-.01-8.779-.031-9.055a7.835,7.835,0,0,0-.77-3.062,6.351,6.351,0,0,0-1.371-1.877,6.9,6.9,0,0,0-3.9-1.849A28.831,28.831,0,0,0,24.208,3Z" fill="url(#radial-gradient)"/>
    <path id="Контур_2171" data-name="Контур 2171" d="M19.006,3c-6.68,0-8.634.007-9.013.038a7.931,7.931,0,0,0-3.153.793A6.378,6.378,0,0,0,5,5.177,6.868,6.868,0,0,0,3.147,9.068,28.974,28.974,0,0,0,3,13.792v5.2c0,6.676.008,8.629.04,9.007A8.04,8.04,0,0,0,3.8,31.092a6.742,6.742,0,0,0,4.369,3.57,11.341,11.341,0,0,0,2.323.3c.4.018,4.435.03,8.476.03s8.082,0,8.469-.024a10.923,10.923,0,0,0,2.407-.315,6.7,6.7,0,0,0,4.369-3.577,7.909,7.909,0,0,0,.754-3.032c.021-.276.03-4.672.03-9.062s-.01-8.779-.031-9.055a7.835,7.835,0,0,0-.77-3.062,6.351,6.351,0,0,0-1.371-1.877,6.9,6.9,0,0,0-3.9-1.849A28.831,28.831,0,0,0,24.208,3Z" fill="url(#radial-gradient-2)"/>
    <path id="Контур_2172" data-name="Контур 2172" d="M20.308,8.493c-3.208,0-3.611.014-4.871.071a8.663,8.663,0,0,0-2.867.549,6.04,6.04,0,0,0-3.456,3.455,8.638,8.638,0,0,0-.549,2.869c-.056,1.26-.071,1.663-.071,4.876s.014,3.611.072,4.871a8.686,8.686,0,0,0,.549,2.868,6.043,6.043,0,0,0,3.452,3.456,8.686,8.686,0,0,0,2.868.549c1.26.057,1.662.072,4.87.072s3.61-.014,4.87-.072a8.7,8.7,0,0,0,2.869-.549A6.051,6.051,0,0,0,31.5,28.051a8.776,8.776,0,0,0,.549-2.869c.056-1.26.071-1.662.071-4.871s-.014-3.612-.071-4.872a8.767,8.767,0,0,0-.549-2.868,6.04,6.04,0,0,0-3.455-3.456,8.69,8.69,0,0,0-2.869-.549C23.913,8.509,23.511,8.5,20.3,8.5Zm-1.06,2.133h1.06c3.154,0,3.528.011,4.773.068a6.539,6.539,0,0,1,2.194.407,3.915,3.915,0,0,1,2.242,2.242,6.539,6.539,0,0,1,.407,2.194c.056,1.246.069,1.62.069,4.773s-.013,3.528-.069,4.773a6.539,6.539,0,0,1-.407,2.194,3.916,3.916,0,0,1-2.242,2.242,6.52,6.52,0,0,1-2.194.407c-1.245.056-1.619.069-4.773.069s-3.528-.012-4.773-.069a6.539,6.539,0,0,1-2.194-.408A3.915,3.915,0,0,1,11.1,27.276a6.5,6.5,0,0,1-.407-2.194c-.057-1.246-.069-1.62-.069-4.776s.011-3.528.069-4.773A6.524,6.524,0,0,1,11.1,13.34,3.911,3.911,0,0,1,13.341,11.1a6.5,6.5,0,0,1,2.194-.408c1.09-.05,1.512-.064,3.714-.066Zm7.365,1.962a1.418,1.418,0,1,0,1.418,1.417,1.418,1.418,0,0,0-1.418-1.417Zm-6.306,1.653a6.068,6.068,0,1,0,6.063,6.066,6.068,6.068,0,0,0-6.063-6.066Zm0,2.133a3.939,3.939,0,1,1-3.94,3.934,3.939,3.939,0,0,1,3.94-3.934Z" transform="translate(-1.308 -1.309)" fill="#fff"/>
  </g>
</svg>
